<svg width="60" height="60" viewBox="0 0 60 60" fill="none" xmlns="http://www.w3.org/2000/svg">
<g clip-path="url(#clip0_3421_3025)">
<rect width="60" height="60" rx="13.28" fill="white"/>
<path d="M21.7159 37.38L10.1659 32.67C9.0859 32.23 8.5459 31.46 8.5459 30.36C8.5459 29.82 8.6759 29.37 8.9359 29.01C9.2159 28.63 9.6259 28.33 10.1659 28.11L21.7159 23.37C22.1159 23.21 22.4659 23.19 22.7659 23.31C23.0859 23.41 23.3359 23.59 23.5159 23.85C23.7159 24.11 23.8259 24.41 23.8459 24.75C23.8659 25.07 23.7959 25.38 23.6359 25.68C23.4759 25.96 23.2059 26.18 22.8259 26.34L9.9559 31.5V29.28L22.8259 34.47C23.2059 34.63 23.4759 34.86 23.6359 35.16C23.7959 35.44 23.8659 35.74 23.8459 36.06C23.8259 36.38 23.7159 36.67 23.5159 36.93C23.3359 37.19 23.0859 37.37 22.7659 37.47C22.4659 37.57 22.1159 37.54 21.7159 37.38Z" fill="#F4C445"/>
<path d="M28.2742 39.78C28.1342 40.22 27.9042 40.54 27.5842 40.74C27.2842 40.94 26.9442 41.04 26.5642 41.04C26.2042 41.04 25.8742 40.94 25.5742 40.74C25.2742 40.56 25.0542 40.3 24.9142 39.96C24.7742 39.62 24.7842 39.21 24.9442 38.73L31.7242 17.58C31.8642 17.14 32.0942 16.82 32.4142 16.62C32.7342 16.4 33.0642 16.3 33.4042 16.32C33.7642 16.32 34.0942 16.42 34.3942 16.62C34.7142 16.8 34.9442 17.06 35.0842 17.4C35.2242 17.72 35.2142 18.12 35.0542 18.6L28.2742 39.78Z" fill="#74ADEA"/>
<path d="M38.3258 37.38C37.9258 37.54 37.5658 37.57 37.2458 37.47C36.9258 37.37 36.6758 37.19 36.4958 36.93C36.3158 36.67 36.2058 36.38 36.1658 36.06C36.1458 35.74 36.2158 35.44 36.3758 35.16C36.5558 34.86 36.8358 34.63 37.2158 34.47L50.0858 29.28V31.5L37.2158 26.34C36.8358 26.18 36.5558 25.96 36.3758 25.68C36.2158 25.38 36.1458 25.07 36.1658 24.75C36.2058 24.41 36.3158 24.11 36.4958 23.85C36.6758 23.59 36.9258 23.41 37.2458 23.31C37.5658 23.19 37.9258 23.21 38.3258 23.37L49.8758 28.11C50.9558 28.55 51.4958 29.3 51.4958 30.36C51.4958 30.9 51.3558 31.36 51.0758 31.74C50.8158 32.12 50.4158 32.43 49.8758 32.67L38.3258 37.38Z" fill="#DE686E"/>
</g>
<defs>
<clipPath id="clip0_3421_3025">
<rect width="60" height="60" rx="13.28" fill="white"/>
</clipPath>
</defs>
</svg>
