<svg width="47" height="36" viewBox="0 0 47 36" fill="none" xmlns="http://www.w3.org/2000/svg">
<path d="M9.91821e-05 3.03486V8.67969L46.6155 8.92248V6.2518C46.6155 4.5757 45.2567 3.21695 43.5806 3.21695H17.5856C16.6665 3.21695 15.788 2.838 15.1573 2.16944L14.009 0.952276C13.4357 0.344494 12.6371 0 11.8015 0H3.03496C1.35885 0 9.91821e-05 1.35875 9.91821e-05 3.03486Z" fill="url(#paint0_linear_3419_60)"/>
<path d="M0 9.27452C0 8.66263 0 8.35669 0.119081 8.12298C0.223827 7.9174 0.390966 7.75026 0.596542 7.64552C0.830251 7.52644 1.13619 7.52644 1.74808 7.52644H44.8673C45.4792 7.52644 45.7851 7.52644 46.0188 7.64552C46.2244 7.75026 46.3916 7.9174 46.4963 8.12298C46.6154 8.35669 46.6154 8.66263 46.6154 9.27451V31.1376C46.6154 32.8373 46.6154 33.6871 46.2846 34.3363C45.9936 34.9074 45.5294 35.3716 44.9583 35.6626C44.3091 35.9934 43.4593 35.9934 41.7596 35.9934H4.85577C3.15609 35.9934 2.30625 35.9934 1.65706 35.6626C1.08602 35.3716 0.621741 34.9074 0.33078 34.3363C0 33.6871 0 32.8373 0 31.1376V9.27452Z" fill="url(#paint1_linear_3419_60)"/>
<path d="M1.88166 7.04083C1.88166 6.37039 2.42516 5.82689 3.0956 5.82689H43.4592C44.1296 5.82689 44.6731 6.37039 44.6731 7.04083V7.52641H1.88166V7.04083Z" fill="white"/>
<defs>
<linearGradient id="paint0_linear_3419_60" x1="23.3078" y1="0" x2="23.3078" y2="8.92248" gradientUnits="userSpaceOnUse">
<stop stop-color="#13B0F8"/>
<stop offset="1" stop-color="#0283EC"/>
</linearGradient>
<linearGradient id="paint1_linear_3419_60" x1="23.3077" y1="7.52644" x2="23.3077" y2="35.9934" gradientUnits="userSpaceOnUse">
<stop stop-color="#2ABAFB"/>
<stop offset="1" stop-color="#2676F6"/>
</linearGradient>
</defs>
</svg>
